# xmcd
#
# Track frame offsets:
#	150
#	12981
#	32056
#	49204
#	63589
#	82108
#	97739
#	113495
#	127798
#	143084
#	162582
#	178726
#	202755
#
# Disc length: 3100 seconds
#
# Revision: 1
# Processed by: cddbd v1.5.2PL0 Copyright (c) Steve Scherf et al.
# Submitted via: audiograbber 1.83.01
#
DISCID=a50c1a0d
DTITLE=Soha - D'ici et d'ailleurs
DYEAR=2007
DGENRE=
TTITLE0=Tourbillon
TTITLE1=C'est bien mieux comme ça
TTITLE2=Ma mélancolie
TTITLE3=On ne saura jamais
TTITLE4=Mil Pasos
TTITLE5=Dream Club
TTITLE6=Vu de là-bas
TTITLE7=Le café bleu
TTITLE8=Mon rêve à moi
TTITLE9=Drôle d'idée
TTITLE10=Rue de la Croix Nivert
TTITLE11=Heureuse
TTITLE12=Piste de données
EXTD=
EXTT0=
EXTT1=
EXTT2=
EXTT3=
EXTT4=
EXTT5=
EXTT6=
EXTT7=
EXTT8=
EXTT9=
EXTT10=
EXTT11=
EXTT12=
PLAYORDER=
